<svg width="99" height="99" viewBox="0 0 99 99" fill="none" xmlns="http://www.w3.org/2000/svg">
<g clip-path="url(#clip0)">
<path d="M13.1159 52.2011C13.027 51.0718 12.0394 50.2284 10.9101 50.3174L2.73109 50.9622C1.60185 51.0511 0.75855 52.0388 0.847577 53.1681C0.9365 54.2973 1.92414 55.1406 3.05347 55.0516L11.2324 54.4069C12.3614 54.318 13.2048 53.3303 13.1159 52.2011Z" fill="white"/>
<path d="M21.939 59.7343C21.8501 58.6053 20.8625 57.7619 19.7331 57.8508L11.5543 58.4956C10.425 58.5845 9.58174 59.5721 9.67077 60.7014C9.75969 61.8307 10.7473 62.674 11.8767 62.585L20.0556 61.9403C21.1846 61.8514 22.028 60.8637 21.939 59.7343Z" fill="white"/>
<path d="M20.6501 43.3773C20.5612 42.248 19.5736 41.4047 18.4442 41.4938L10.2653 42.1384C9.13607 42.2273 8.29277 43.215 8.38179 44.3443C8.47072 45.4735 9.45836 46.3169 10.5877 46.2278L18.7666 45.5832C19.8957 45.4942 20.739 44.5065 20.6501 43.3773Z" fill="white"/>
<path d="M84.8506 58.8906L82.9163 34.3539C82.6496 30.9697 79.6787 28.4369 76.2985 28.7033L31.315 32.2495C27.9443 32.5152 25.396 35.4626 25.6645 38.8672L27.5987 63.4037C27.8659 66.7939 30.8257 69.3217 34.2164 69.0542L79.2002 65.5082C82.5768 65.242 85.1178 62.2779 84.8506 58.8906ZM74.8515 32.9322L56.5436 49.3494C55.8567 49.9652 54.836 50.0458 54.061 49.545L33.4069 36.1994L74.8515 32.9322ZM31.8192 63.6598C31.7488 63.4766 31.704 63.2825 31.688 63.0814L29.7688 38.7325L46.7186 49.6845L31.8192 63.6598ZM36.656 64.7472L50.2689 51.9785L51.8349 52.9904C54.1595 54.4924 57.2219 54.2508 59.2821 52.4034L60.6703 51.1585L76.1159 61.6365L36.656 64.7472ZM63.8172 48.3366L78.8417 34.864L80.7612 59.213C80.7772 59.416 80.7619 59.6143 80.7211 59.8038L63.8172 48.3366Z" fill="white"/>
</g>
<defs>
<clipPath id="clip0">
<rect width="70" height="70" fill="white" transform="translate(45.4546) rotate(40.4926)"/>
</clipPath>
</defs>
</svg>
